<svg xmlns="http://www.w3.org/2000/svg" width="1200" height="628" viewBox="0 0 1200 628" role="img"><rect width="1200" height="628" fill="#F7F4EE"/><g transform="translate(78.0,218.0) scale(0.8)"><g fill="none" stroke="#0A0B0D" stroke-width="14" stroke-linecap="square" stroke-linejoin="miter"><path d="M200.99 132.83 A82 82 0 1 1 200.99 107.17" stroke-linecap="butt"/><path d="M84 72 L84 168"/><path d="M84 120 L146 76"/><path d="M84 120 L146 164"/></g></g><g transform="translate(324.0,157.0) scale(0.789247311827957)"><g transform="translate(0,0)" fill="none" stroke="#0A0B0D" stroke-width="20" stroke-linecap="square" stroke-linejoin="miter"><path d="M50 40 L50 180"/><path d="M50 110 L130 40"/><path d="M50 110 L130 180"/><path d="M220 180 L285 40"/><path d="M285 40 L350 180"/><path d="M450 40 L450 180"/><path d="M550 40 L615 180"/><path d="M615 180 L680 40"/><path d="M889.138 120.950 A70 70 0 1 1 889.138 99.050" stroke-linecap="butt"/></g></g><text x="324.0" y="439.59999999999997" font-family="Arial, sans-serif" font-size="47" fill="#0A0B0D">ONE PLATFORM. EVERY EXPERIENCE.</text></svg>